<?xml version="1.0" encoding="UTF-8"?>
<svg width="1280" height="720" viewBox="0 0 1280 720" xmlns="http://www.w3.org/2000/svg" xmlns:xlink="http://www.w3.org/1999/xlink">
  <title>Dashboard Overview - Annotated</title>
  <desc>Dashboard interface with numbered callouts highlighting key metrics and navigation</desc>

  <!-- Embed the original screenshot -->
  <image href="dashboard/dashboard-overview.png" width="1280" height="720"/>

  <!-- Callout Style Definitions -->
  <defs>
    <filter id="shadow" x="-20%" y="-20%" width="140%" height="140%">
      <feDropShadow dx="1" dy="1" stdDeviation="2" flood-opacity="0.3"/>
    </filter>
  </defs>

  <!-- Callout 1: Sidebar Navigation -->
  <g transform="translate(30, 180)">
    <circle cx="0" cy="0" r="14" fill="#3B82F6" filter="url(#shadow)"/>
    <text x="0" y="5" text-anchor="middle" fill="white" font-family="Inter, sans-serif" font-size="12" font-weight="600">1</text>
    <!-- Arrow pointing right to sidebar -->
    <line x1="14" y1="0" x2="25" y2="0" stroke="#3B82F6" stroke-width="2" marker-end="url(#arrowhead)"/>
  </g>

  <!-- Callout 2: Projects Card -->
  <g transform="translate(405, 140)">
    <circle cx="0" cy="0" r="14" fill="#3B82F6" filter="url(#shadow)"/>
    <text x="0" y="5" text-anchor="middle" fill="white" font-family="Inter, sans-serif" font-size="12" font-weight="600">2</text>
    <line x1="0" y1="14" x2="0" y2="25" stroke="#3B82F6" stroke-width="2"/>
  </g>

  <!-- Callout 3: Test Suites Card -->
  <g transform="translate(650, 140)">
    <circle cx="0" cy="0" r="14" fill="#3B82F6" filter="url(#shadow)"/>
    <text x="0" y="5" text-anchor="middle" fill="white" font-family="Inter, sans-serif" font-size="12" font-weight="600">3</text>
    <line x1="0" y1="14" x2="0" y2="25" stroke="#3B82F6" stroke-width="2"/>
  </g>

  <!-- Callout 4: Total Tests Card -->
  <g transform="translate(880, 140)">
    <circle cx="0" cy="0" r="14" fill="#3B82F6" filter="url(#shadow)"/>
    <text x="0" y="5" text-anchor="middle" fill="white" font-family="Inter, sans-serif" font-size="12" font-weight="600">4</text>
    <line x1="0" y1="14" x2="0" y2="25" stroke="#3B82F6" stroke-width="2"/>
  </g>

  <!-- Callout 5: Test Runs Card -->
  <g transform="translate(1145, 140)">
    <circle cx="0" cy="0" r="14" fill="#3B82F6" filter="url(#shadow)"/>
    <text x="0" y="5" text-anchor="middle" fill="white" font-family="Inter, sans-serif" font-size="12" font-weight="600">5</text>
    <line x1="0" y1="14" x2="0" y2="25" stroke="#3B82F6" stroke-width="2"/>
  </g>

  <!-- Callout 6: Pass Rate -->
  <g transform="translate(440, 330)">
    <circle cx="0" cy="0" r="14" fill="#10B981" filter="url(#shadow)"/>
    <text x="0" y="5" text-anchor="middle" fill="white" font-family="Inter, sans-serif" font-size="12" font-weight="600">6</text>
    <line x1="0" y1="14" x2="0" y2="25" stroke="#10B981" stroke-width="2"/>
  </g>

  <!-- Callout 7: Passed Count -->
  <g transform="translate(765, 330)">
    <circle cx="0" cy="0" r="14" fill="#10B981" filter="url(#shadow)"/>
    <text x="0" y="5" text-anchor="middle" fill="white" font-family="Inter, sans-serif" font-size="12" font-weight="600">7</text>
    <line x1="0" y1="14" x2="0" y2="25" stroke="#10B981" stroke-width="2"/>
  </g>

  <!-- Callout 8: Failed Count -->
  <g transform="translate(1095, 330)">
    <circle cx="0" cy="0" r="14" fill="#EF4444" filter="url(#shadow)"/>
    <text x="0" y="5" text-anchor="middle" fill="white" font-family="Inter, sans-serif" font-size="12" font-weight="600">8</text>
    <line x1="0" y1="14" x2="0" y2="25" stroke="#EF4444" stroke-width="2"/>
  </g>

  <!-- Callout 9: Notifications Badge -->
  <g transform="translate(230, 260)">
    <circle cx="0" cy="0" r="14" fill="#F59E0B" filter="url(#shadow)"/>
    <text x="0" y="5" text-anchor="middle" fill="white" font-family="Inter, sans-serif" font-size="12" font-weight="600">9</text>
    <line x1="0" y1="14" x2="0" y2="25" stroke="#F59E0B" stroke-width="2"/>
  </g>

  <!-- Legend Box -->
  <g transform="translate(850, 480)">
    <rect x="0" y="0" width="380" height="220" rx="8" fill="white" stroke="#E5E7EB" stroke-width="1" filter="url(#shadow)"/>
    <text x="15" y="25" fill="#1F2937" font-family="Inter, sans-serif" font-size="14" font-weight="600">Legend</text>

    <g transform="translate(15, 45)">
      <circle cx="10" cy="8" r="10" fill="#3B82F6"/>
      <text x="10" y="12" text-anchor="middle" fill="white" font-family="Inter, sans-serif" font-size="10" font-weight="600">1</text>
      <text x="30" y="12" fill="#374151" font-family="Inter, sans-serif" font-size="11">Sidebar - Main navigation menu</text>
    </g>

    <g transform="translate(15, 65)">
      <circle cx="10" cy="8" r="10" fill="#3B82F6"/>
      <text x="10" y="12" text-anchor="middle" fill="white" font-family="Inter, sans-serif" font-size="10" font-weight="600">2</text>
      <text x="30" y="12" fill="#374151" font-family="Inter, sans-serif" font-size="11">Projects - Total project count</text>
    </g>

    <g transform="translate(15, 85)">
      <circle cx="10" cy="8" r="10" fill="#3B82F6"/>
      <text x="10" y="12" text-anchor="middle" fill="white" font-family="Inter, sans-serif" font-size="10" font-weight="600">3</text>
      <text x="30" y="12" fill="#374151" font-family="Inter, sans-serif" font-size="11">Test Suites - Suite count across projects</text>
    </g>

    <g transform="translate(15, 105)">
      <circle cx="10" cy="8" r="10" fill="#3B82F6"/>
      <text x="10" y="12" text-anchor="middle" fill="white" font-family="Inter, sans-serif" font-size="10" font-weight="600">4</text>
      <text x="30" y="12" fill="#374151" font-family="Inter, sans-serif" font-size="11">Total Tests - Combined test case count</text>
    </g>

    <g transform="translate(15, 125)">
      <circle cx="10" cy="8" r="10" fill="#3B82F6"/>
      <text x="10" y="12" text-anchor="middle" fill="white" font-family="Inter, sans-serif" font-size="10" font-weight="600">5</text>
      <text x="30" y="12" fill="#374151" font-family="Inter, sans-serif" font-size="11">Test Runs - Total execution count</text>
    </g>

    <g transform="translate(15, 145)">
      <circle cx="10" cy="8" r="10" fill="#10B981"/>
      <text x="10" y="12" text-anchor="middle" fill="white" font-family="Inter, sans-serif" font-size="10" font-weight="600">6</text>
      <text x="30" y="12" fill="#374151" font-family="Inter, sans-serif" font-size="11">Pass Rate - Success percentage</text>
    </g>

    <g transform="translate(15, 165)">
      <circle cx="10" cy="8" r="10" fill="#10B981"/>
      <text x="10" y="12" text-anchor="middle" fill="white" font-family="Inter, sans-serif" font-size="10" font-weight="600">7</text>
      <text x="30" y="12" fill="#374151" font-family="Inter, sans-serif" font-size="11">Passed - Successful test runs</text>
    </g>

    <g transform="translate(15, 185)">
      <circle cx="10" cy="8" r="10" fill="#EF4444"/>
      <text x="10" y="12" text-anchor="middle" fill="white" font-family="Inter, sans-serif" font-size="10" font-weight="600">8</text>
      <text x="30" y="12" fill="#374151" font-family="Inter, sans-serif" font-size="11">Failed - Failed test runs</text>
    </g>

    <g transform="translate(15, 205)">
      <circle cx="10" cy="8" r="10" fill="#F59E0B"/>
      <text x="10" y="12" text-anchor="middle" fill="white" font-family="Inter, sans-serif" font-size="10" font-weight="600">9</text>
      <text x="30" y="12" fill="#374151" font-family="Inter, sans-serif" font-size="11">Notifications - Unread alert count</text>
    </g>
  </g>
</svg>